<svg width="17.07998mm" height="19.72884mm" version="1.1" viewBox="0 0 17.07998 19.72884" xmlns="http://www.w3.org/2000/svg">
  <g transform="translate(-12.90161 -5.758622)" fill="none">
    <rect x="13.13958" y="5.920045" width="16.68441" height="19.42392" stroke="#000" stroke-linecap="round" stroke-linejoin="round" stroke-width=".287" style="paint-order:fill markers stroke"/>
    <g stroke-width=".2645833px">
      <path d="m18.247 10.52037 4.944486-0.26727" stroke="#fd0000"/>
      <path d="m23.19149 10.2531 2.605877 3.674956-1.737251 2.539061" stroke="#f40000"/>
      <path d="m24.06011 16.46712-3.274052 0.133634-1.870887-2.80633-0.668173-3.274051" stroke="#f60000"/>
    </g>
    <g stroke="#000" stroke-width=".2645833px">
      <path d="m24.06011 20.54298v-4.07586"/>
      <path d="m24.06011 20.54298h6.013564"/>
      <path d="m24.06011 20.54298-3.0736 4.810851"/>
      <path d="m24.06011 16.46712 5.746295 1.603617"/>
      <path d="m20.78606 16.60075 1.069078 7.283095"/>
      <path d="m19.3829 5.976789-1.135895 4.543582-5.211756 1.135895"/>
      <path d="m23.19149 10.2531-0.334087-4.476764"/>
      <path d="m23.19149 10.2531 6.548103 0.334087"/>
      <path d="m26.66599 10.38674 1.80407-4.610399"/>
      <path d="m25.79736 13.92806 3.942226-3.340869"/>
      <path d="m13.10206 15.59849 2.405426 3.608138 2.472243 3.140417 3.875408 1.5368"/>
      <path d="m17.97973 22.34705 2.80633-5.746295"/>
      <path d="m18.91517 13.79442-5.813112 1.80407"/>
      <path d="m15.50749 19.20663-0.26727 6.080382"/>
    </g>
  </g>
</svg>
