<svg width="17.07998mm" height="19.72884mm" version="1.1" viewBox="0 0 17.07998 19.72884" xmlns="http://www.w3.org/2000/svg">
  <g transform="translate(-12.90161 -5.758622)" fill="none">
    <rect x="13.13958" y="5.920045" width="16.68441" height="19.42392" stroke="#000" stroke-linecap="round" stroke-linejoin="round" stroke-width=".287" style="paint-order:fill markers stroke"/>
    <path d="m22.92422 23.61658-3.741773-6.548104" stroke="#000" stroke-width=".2645833px"/>
    <path d="m13.16888 16.66757 6.013564 0.400904" stroke="#fd0000" stroke-width=".2645833px"/>
    <g stroke="#000" stroke-width=".2645833px">
      <path d="m19.18244 17.06847-0.26727-3.474504"/>
      <path d="m18.91517 13.59397-1.870886-3.407686"/>
      <path d="m17.04429 10.18628 1.670434-4.409947"/>
      <path d="m17.04429 10.18628-3.741774 2.939965"/>
    </g>
    <g stroke-width=".2645833px">
      <path d="m13.16888 16.66757 3.340868 4.877668" stroke="#fd0000"/>
      <path d="m16.50975 21.54524 1.670435 3.741774" stroke="#000"/>
      <path d="m16.50975 21.54524 6.414469 2.07134" stroke="#fd0000"/>
      <path d="m22.92422 23.61658 2.138156 1.670434" stroke="#000"/>
      <path d="m22.92422 23.61658 2.80633-3.541322" stroke="#fd0000"/>
      <path d="m25.73055 20.07526 4.142678 0.668174" stroke="#000"/>
      <path d="m25.73055 20.07526-0.601356-4.142677" stroke="#fd0000"/>
      <path d="m25.12919 15.93258-5.946747 1.135895" stroke="#fd0000"/>
    </g>
    <g stroke="#000" stroke-width=".2645833px">
      <path d="m18.91517 13.59397 4.009043-1.804069"/>
      <path d="m22.92422 11.7899 2.204974 4.142678"/>
      <path d="m22.92422 11.7899 0.26727-2.873148"/>
      <path d="m23.19149 8.916753-0.734991-3.006782"/>
      <path d="m25.12919 15.93258 4.677217-4.009043"/>
      <path d="m22.92422 11.7899 4.276313-1.403165-0.868626-4.677217"/>
      <path d="m27.20053 10.38674 2.605878 1.5368"/>
    </g>
  </g>
</svg>
