<svg width="17.07998mm" height="19.72884mm" version="1.1" viewBox="0 0 17.07998 19.72884" xmlns="http://www.w3.org/2000/svg">
  <g transform="translate(-12.90161 -5.758622)" fill="none">
    <rect x="13.13958" y="5.920045" width="16.68441" height="19.42392" stroke="#000" stroke-linecap="round" stroke-linejoin="round" stroke-width=".287" style="paint-order:fill markers stroke"/>
    <path d="m13.13958 5.920045 2.629318 3.497943-0.06682 3.875408-2.672693 2.338608" stroke="#002b00" stroke-width=".2645833px"/>
    <g stroke="#000" stroke-width=".2645833px">
      <path d="m15.70208 13.2934 4.677219 3.741773-0.935443 3.474504-3.006782 0.868626-3.474504-1.804069"/>
      <path d="m16.43708 21.3783 0.734991 4.009043"/>
      <path d="m25.72469 25.25371-0.534539-3.80859 4.744034-1.670435"/>
      <path d="m25.19015 21.44512-5.746295-0.935444"/>
      <path d="m19.44386 20.50967 2.939965 4.744034"/>
    </g>
    <g stroke-width=".2645833px">
      <path d="m20.3793 17.03517 4.209495-1.536799" stroke="#f00"/>
      <path d="m24.5888 15.49837 5.278574 0.868625" stroke="#f00"/>
      <path d="m15.7689 9.417988 3.474504-0.2672692 2.204974 1.737252" stroke="#000"/>
      <path d="m20.3793 17.03517 1.069079-6.147199 4.944486-0.467721 3.474504 5.946746" stroke="#f00"/>
    </g>
    <g stroke="#000" stroke-width=".2645833px">
      <path d="m26.39287 10.42025-0.26727-4.34313"/>
      <path d="m19.24341 9.150718 1.403165-3.340869"/>
      <path d="m26.39287 10.42025-1.80407 5.078121-1.069078 5.479025"/>
    </g>
  </g>
</svg>
